<svg xmlns="http://www.w3.org/2000/svg" viewBox="0 0 720 520"><rect width="720" height="520" fill="white"/><rect x="22" y="22" width="676" height="476" fill="none" stroke="#222" stroke-width="2"/><text x="360" y="78" text-anchor="middle" font-family="Georgia,serif" font-size="28">Open Chord Changes</text><g font-family="Arial" font-size="30" text-anchor="middle"><text x="145" y="155">G</text><text x="290" y="155">C</text><text x="435" y="155">D</text><text x="580" y="155">Em</text></g><g stroke="#222" stroke-width="3"><line x1="110" y1="190" x2="110" y2="390"/><line x1="145" y1="190" x2="145" y2="390"/><line x1="180" y1="190" x2="180" y2="390"/><line x1="255" y1="190" x2="255" y2="390"/><line x1="290" y1="190" x2="290" y2="390"/><line x1="325" y1="190" x2="325" y2="390"/><line x1="400" y1="190" x2="400" y2="390"/><line x1="435" y1="190" x2="435" y2="390"/><line x1="470" y1="190" x2="470" y2="390"/><line x1="545" y1="190" x2="545" y2="390"/><line x1="580" y1="190" x2="580" y2="390"/><line x1="615" y1="190" x2="615" y2="390"/><line x1="95" y1="210" x2="195" y2="210"/><line x1="240" y1="210" x2="340" y2="210"/><line x1="385" y1="210" x2="485" y2="210"/><line x1="530" y1="210" x2="630" y2="210"/><line x1="95" y1="245" x2="195" y2="245"/><line x1="240" y1="245" x2="340" y2="245"/><line x1="385" y1="245" x2="485" y2="245"/><line x1="530" y1="245" x2="630" y2="245"/><line x1="95" y1="280" x2="195" y2="280"/><line x1="240" y1="280" x2="340" y2="280"/><line x1="385" y1="280" x2="485" y2="280"/><line x1="530" y1="280" x2="630" y2="280"/><line x1="95" y1="315" x2="195" y2="315"/><line x1="240" y1="315" x2="340" y2="315"/><line x1="385" y1="315" x2="485" y2="315"/><line x1="530" y1="315" x2="630" y2="315"/><line x1="95" y1="350" x2="195" y2="350"/><line x1="240" y1="350" x2="340" y2="350"/><line x1="385" y1="350" x2="485" y2="350"/><line x1="530" y1="350" x2="630" y2="350"/><line x1="95" y1="385" x2="195" y2="385"/><line x1="240" y1="385" x2="340" y2="385"/><line x1="385" y1="385" x2="485" y2="385"/><line x1="530" y1="385" x2="630" y2="385"/></g></svg>